<svg width="16" height="16" viewBox="0 0 16 16" fill="none" xmlns="http://www.w3.org/2000/svg">
<g id="Frame">
<path id="Vector" d="M7.99401 8.77799C7.68755 8.77799 7.3841 8.71761 7.10098 8.60031C6.81786 8.483 6.56063 8.31106 6.34398 8.09432C6.12733 7.87757 5.9555 7.62027 5.83831 7.3371C5.72113 7.05393 5.66088 6.75045 5.66101 6.44399C5.66101 5.82524 5.90681 5.23184 6.34433 4.79431C6.78185 4.35679 7.37526 4.11099 7.99401 4.11099C8.30047 4.11086 8.60395 4.17111 8.88712 4.28829C9.17029 4.40548 9.42759 4.57731 9.64434 4.79396C9.86108 5.01061 10.033 5.26784 10.1503 5.55096C10.2676 5.83408 10.328 6.13753 10.328 6.44399C10.3281 6.75053 10.2679 7.0541 10.1506 7.33733C10.0334 7.62056 9.86145 7.87792 9.64469 8.09467C9.42793 8.31143 9.17058 8.48335 8.88735 8.60059C8.60412 8.71784 8.30055 8.77812 7.99401 8.77799Z" stroke="white" stroke-width="1.5" stroke-linecap="round" stroke-linejoin="round"/>
<path id="Vector_2" d="M7.99405 15C7.99405 15 2.55005 10.528 2.55005 6.44401C2.55005 5.00004 3.12366 3.61521 4.14471 2.59417C5.16575 1.57313 6.55058 0.999512 7.99455 0.999512C9.43852 0.999512 10.8233 1.57313 11.8444 2.59417C12.8654 3.61521 13.439 5.00004 13.439 6.44401C13.439 10.528 7.99405 15 7.99405 15Z" stroke="white" stroke-width="1.5" stroke-linecap="round" stroke-linejoin="round"/>
</g>
</svg>
