<svg width="165" height="187" viewBox="0 0 165 187" fill="none" xmlns="http://www.w3.org/2000/svg">
<g id="Favicon">
<path id="Vector" d="M0.00828506 9.37224C0.0532002 7.66897 0.549436 6.00815 1.44625 4.55941C2.34306 3.11067 3.60832 1.92593 5.11283 1.1262C6.61734 0.326472 8.30716 -0.0595876 10.0097 0.0074562C11.7122 0.0745 13.3665 0.592245 14.8034 1.50781L70.74 33.6008L70.7978 33.6489C72.2555 34.5293 73.4515 35.7831 74.2622 37.2807C75.0729 38.7783 75.4689 40.4653 75.409 42.1672C75.3491 43.8691 74.8356 45.5241 73.9217 46.961C73.0078 48.398 71.7266 49.5646 70.2106 50.3404L14.274 82.4912H14.2163C12.7726 83.2816 11.1494 83.6862 9.50361 83.666C7.85784 83.6458 6.24509 83.2013 4.82127 82.3757C3.29783 81.504 2.04321 80.2305 1.19442 78.6941C0.34563 77.1578 -0.0646978 75.4178 0.00828506 73.6641V9.37224Z" fill="#0093DD"/>
<path id="Vector_2" d="M89.5974 60.7464C89.6423 59.0432 90.1385 57.3824 91.0353 55.9336C91.9321 54.4849 93.1974 53.3001 94.7019 52.5004C96.2064 51.7007 97.8962 51.3146 99.5987 51.3817C101.301 51.4487 102.956 51.9665 104.392 52.882L160.339 84.9847L160.387 85.0328C161.843 85.913 163.037 87.1658 163.847 88.6619C164.657 90.1579 165.053 91.843 164.994 93.5432C164.935 95.2434 164.424 96.8971 163.512 98.3335C162.601 99.77 161.322 100.937 159.809 101.715C159.809 101.715 103.979 133.759 103.863 133.808L103.815 133.865C102.366 134.65 100.739 135.048 99.0912 135.019C97.4435 134.99 95.8312 134.537 94.4104 133.702C92.8833 132.834 91.6256 131.562 90.7763 130.024C89.9269 128.487 89.519 126.745 89.5974 124.99V60.7464Z" fill="#F8C442"/>
<path id="Vector_3" d="M0.0100481 112.188C0.0549633 110.484 0.551199 108.824 1.44801 107.375C2.34482 105.926 3.61009 104.741 5.1146 103.942C6.61911 103.142 8.30892 102.756 10.0115 102.823C11.714 102.89 13.3682 103.408 14.8052 104.323L70.7417 136.416L70.7995 136.464C72.2573 137.345 73.4533 138.598 74.264 140.096C75.0747 141.594 75.4706 143.281 75.4108 144.983C75.3509 146.684 74.8374 148.339 73.9235 149.776C73.0095 151.213 71.7284 152.38 70.2124 153.156L14.2758 185.249L14.218 185.297C12.7274 186.122 11.0434 186.535 9.33999 186.493C7.63654 186.451 5.97527 185.955 4.52744 185.056C3.07961 184.158 1.89773 182.889 1.10365 181.382C0.309573 179.874 -0.067982 178.182 0.0100481 176.48V112.188Z" fill="#01923E"/>
</g>
</svg>
